<svg width="currentWidth" height="currentHeight" viewBox="0 0 50 50" fill="none" xmlns="http://www.w3.org/2000/svg">
<path d="M23.4935 44.987H8.49783C7.83498 44.987 7.19928 44.7236 6.73057 44.2549C6.26187 43.7862 5.99855 43.1505 5.99855 42.4877V7.49783C5.99855 6.83498 6.26187 6.19928 6.73057 5.73057C7.19928 5.26187 7.83498 4.99855 8.49783 4.99855H20.9942V12.4964C20.9942 14.4849 21.7841 16.392 23.1903 17.7981C24.5964 19.2043 26.5035 19.9942 28.492 19.9942H35.9899V32.4906C35.9899 33.1534 36.2532 33.7891 36.7219 34.2578C37.1906 34.7265 37.8263 34.9899 38.4891 34.9899C39.152 34.9899 39.7877 34.7265 40.2564 34.2578C40.7251 33.7891 40.9884 33.1534 40.9884 32.4906V17.4949C40.9884 17.4949 40.9884 17.4949 40.9884 17.345C40.9624 17.1154 40.9121 16.8892 40.8385 16.6702V16.4452C40.7183 16.1883 40.558 15.952 40.3636 15.7454L25.3679 0.749783C25.1613 0.555379 24.9251 0.395088 24.6681 0.27492C24.5855 0.260448 24.5009 0.260448 24.4182 0.27492C24.1752 0.144966 23.914 0.0522898 23.6434 0H8.49783C6.50928 0 4.60218 0.789948 3.19606 2.19606C1.78995 3.60218 1 5.50928 1 7.49783V42.4877C1 44.4762 1.78995 46.3833 3.19606 47.7894C4.60218 49.1956 6.50928 49.9855 8.49783 49.9855H23.4935C24.1563 49.9855 24.792 49.7222 25.2607 49.2535C25.7294 48.7848 25.9928 48.1491 25.9928 47.4862C25.9928 46.8234 25.7294 46.1877 25.2607 45.719C24.792 45.2503 24.1563 44.987 23.4935 44.987ZM25.9928 8.52253L32.4659 14.9957H28.492C27.8292 14.9957 27.1935 14.7323 26.7248 14.2636C26.2561 13.7949 25.9928 13.1592 25.9928 12.4964V8.52253ZM13.4964 29.9913H28.492C29.1549 29.9913 29.7906 29.728 30.2593 29.2593C30.728 28.7906 30.9913 28.1549 30.9913 27.492C30.9913 26.8292 30.728 26.1935 30.2593 25.7248C29.7906 25.2561 29.1549 24.9928 28.492 24.9928H13.4964C12.8335 24.9928 12.1978 25.2561 11.7291 25.7248C11.2604 26.1935 10.9971 26.8292 10.9971 27.492C10.9971 28.1549 11.2604 28.7906 11.7291 29.2593C12.1978 29.728 12.8335 29.9913 13.4964 29.9913ZM23.4935 34.9899H13.4964C12.8335 34.9899 12.1978 35.2532 11.7291 35.7219C11.2604 36.1906 10.9971 36.8263 10.9971 37.4891C10.9971 38.152 11.2604 38.7877 11.7291 39.2564C12.1978 39.7251 12.8335 39.9884 13.4964 39.9884H23.4935C24.1563 39.9884 24.792 39.7251 25.2607 39.2564C25.7294 38.7877 25.9928 38.152 25.9928 37.4891C25.9928 36.8263 25.7294 36.1906 25.2607 35.7219C24.792 35.2532 24.1563 34.9899 23.4935 34.9899ZM13.4964 19.9942H15.9957C16.6585 19.9942 17.2942 19.7309 17.7629 19.2622C18.2316 18.7935 18.4949 18.1578 18.4949 17.4949C18.4949 16.8321 18.2316 16.1964 17.7629 15.7277C17.2942 15.259 16.6585 14.9957 15.9957 14.9957H13.4964C12.8335 14.9957 12.1978 15.259 11.7291 15.7277C11.2604 16.1964 10.9971 16.8321 10.9971 17.4949C10.9971 18.1578 11.2604 18.7935 11.7291 19.2622C12.1978 19.7309 12.8335 19.9942 13.4964 19.9942ZM47.7614 35.7146C47.5291 35.4804 47.2527 35.2945 46.9481 35.1676C46.6436 35.0407 46.3169 34.9754 45.987 34.9754C45.657 34.9754 45.3304 35.0407 45.0258 35.1676C44.7212 35.2945 44.4448 35.4804 44.2125 35.7146L35.9899 43.9623L32.7658 40.7132C32.5328 40.4802 32.2561 40.2953 31.9517 40.1692C31.6472 40.0431 31.3209 39.9782 30.9913 39.9782C30.6618 39.9782 30.3354 40.0431 30.031 40.1692C29.7265 40.2953 29.4498 40.4802 29.2168 40.7132C28.9838 40.9462 28.7989 41.2229 28.6728 41.5273C28.5467 41.8318 28.4818 42.1581 28.4818 42.4877C28.4818 42.8172 28.5467 43.1436 28.6728 43.448C28.7989 43.7525 28.9838 44.0291 29.2168 44.2622L34.2154 49.2607C34.4477 49.495 34.7241 49.6809 35.0287 49.8078C35.3333 49.9347 35.6599 50 35.9899 50C36.3198 50 36.6465 49.9347 36.951 49.8078C37.2556 49.6809 37.532 49.495 37.7643 49.2607L47.7614 39.2636C47.9957 39.0313 48.1816 38.7549 48.3085 38.4503C48.4354 38.1457 48.5007 37.8191 48.5007 37.4891C48.5007 37.1592 48.4354 36.8325 48.3085 36.528C48.1816 36.2234 47.9957 35.947 47.7614 35.7146Z" fill="currentColor"/>
</svg>
