<!DOCTYPE svg PUBLIC "-//W3C//DTD SVG 1.1//EN" "http://www.w3.org/Graphics/SVG/1.1/DTD/svg11.dtd">

<!-- Uploaded to: SVG Repo, www.svgrepo.com, Transformed by: SVG Repo Mixer Tools -->
<svg fill="currentColor" width="currentWidth" height="currentHeight" viewBox="0 0 24 24" id="bus-left" data-name="Line Color" xmlns="http://www.w3.org/2000/svg" class="icon line-color">

<g id="SVGRepo_bgCarrier" stroke-width="0"/>

<g id="SVGRepo_tracerCarrier" stroke-linecap="round" stroke-linejoin="round"/>

<g id="SVGRepo_iconCarrier">

<path id="primary" d="M4.91,17H4a1,1,0,0,1-1-1V11.16l0-.31L4.77,5.68a1,1,0,0,1,1-.68H20a1,1,0,0,1,1,1V16a1,1,0,0,1-1,1h-.91" style="fill: none; stroke: currentColor; stroke-linecap: round; stroke-linejoin: round; stroke-width: 2;"/>

<path id="primary-2" data-name="primary" d="M3,11H21m-6.08,6H9.06M15,5H9v6h6Z" style="fill: none; stroke: currentColor; stroke-linecap: round; stroke-linejoin: round; stroke-width: 2;"/>

<path id="secondary" d="M15,17a2,2,0,1,0,2-2A2,2,0,0,0,15,17ZM5,17a2,2,0,1,0,2-2A2,2,0,0,0,5,17Z" style="fill: none; stroke: currentColor; stroke-linecap: round; stroke-linejoin: round; stroke-width: 2;"/>

</g>

</svg>