<svg width="currentWidth" height="currentHeight" viewBox="0 0 50 50" fill="none" xmlns="http://www.w3.org/2000/svg">
<path d="M6.25 18.75H43.75M14.5833 6.25V10.4167M35.4167 6.25V10.4167M12.5 27.0833H16.6667M12.5 35.4167H16.6667M22.9167 27.0833H27.0833M22.9167 35.4167H27.0833M33.3333 27.0833H37.5M33.3333 35.4167H37.5M12.9167 43.75H37.0833C39.4169 43.75 40.5838 43.75 41.475 43.2958C42.259 42.8965 42.8965 42.259 43.2958 41.475C43.75 40.5838 43.75 39.4169 43.75 37.0833V17.0833C43.75 14.7498 43.75 13.583 43.2958 12.6917C42.8965 11.9077 42.259 11.2703 41.475 10.8708C40.5838 10.4167 39.4169 10.4167 37.0833 10.4167H12.9167C10.5831 10.4167 9.41633 10.4167 8.52504 10.8708C7.74102 11.2703 7.1036 11.9077 6.70415 12.6917C6.25 13.583 6.25 14.7498 6.25 17.0833V37.0833C6.25 39.4169 6.25 40.5838 6.70415 41.475C7.1036 42.259 7.74102 42.8965 8.52504 43.2958C9.41633 43.75 10.5831 43.75 12.9167 43.75Z" stroke="currentColor" stroke-width="4" stroke-linecap="round" stroke-linejoin="round"/>
</svg>