<svg width="currentWidth" height="currentHeight" viewBox="0 0 50 50" fill="none" xmlns="http://www.w3.org/2000/svg">
<path d="M16.6666 25L22.9166 31.25L33.3333 18.75M8.33325 35.0005V15.0005C8.33325 12.6669 8.33325 11.4992 8.7874 10.608C9.18686 9.82394 9.82381 9.18698 10.6078 8.78752C11.4991 8.33337 12.6668 8.33337 15.0003 8.33337H35.0003C37.3339 8.33337 38.4991 8.33337 39.3903 8.78752C40.1743 9.18698 40.8135 9.82394 41.2128 10.608C41.6666 11.4984 41.6666 12.6646 41.6666 14.9936V35.0075C41.6666 37.3365 41.6666 38.5011 41.2128 39.3915C40.8135 40.1755 40.1743 40.8136 39.3903 41.213C38.4999 41.6667 37.3353 41.6667 35.0064 41.6667H14.9935C12.6645 41.6667 11.4983 41.6667 10.6078 41.213C9.82381 40.8136 9.18686 40.1755 8.7874 39.3915C8.33325 38.5002 8.33325 37.334 8.33325 35.0005Z" stroke="currentColor" stroke-width="6" stroke-linecap="round" stroke-linejoin="round"/>
</svg>
