<svg width="currentWidth" height="currentHeight" viewBox="0 0 50 50" fill="none" xmlns="http://www.w3.org/2000/svg">
<path d="M7.95322 11.423C10.2194 11.423 12.0555 9.5854 12.0555 7.32065C12.0555 5.05356 10.2194 3.21753 7.95322 3.21753C5.68604 3.21753 3.8501 5.05356 3.8501 7.32065C3.8501 9.5854 5.68604 11.423 7.95322 11.423Z" fill="currentColor"/>
<path d="M21.8912 23.9293C21.8912 23.8458 21.8773 23.766 21.8667 23.6854L27.9944 19.238C28.3794 18.9581 28.4661 18.4167 28.1861 18.0308C28.0236 17.8077 27.7621 17.6742 27.4859 17.6742C27.3026 17.6742 27.1278 17.7317 26.979 17.8391L20.839 22.2958C20.6104 22.1915 20.3596 22.1293 20.0919 22.1293H16.7542L15.9442 17.5178C15.4994 15.1925 14.5661 13.3665 12.5782 13.3665H4.15049C2.1627 13.3665 0 15.5291 0 17.5178V31.3072C0 32.3011 0.805273 33.1072 1.79922 33.1072C2.28857 33.1072 1.79922 33.1072 3.05547 33.1072L3.73955 44.8673C3.73955 45.9249 4.59775 46.7824 5.65537 46.7824C6.44834 46.7824 8.42861 46.7824 9.48623 46.7824C10.5438 46.7824 11.4013 45.9249 11.4013 44.8673L12.3001 21.5734H12.3453L12.86 23.8458C13.0303 24.9294 13.9628 25.7286 15.0596 25.7286H20.0922C21.0859 25.7286 21.8912 24.9233 21.8912 23.9293ZM6.64316 21.3731V14.8181H8.99922V21.3731L7.74756 22.8495L6.64316 21.3731Z" fill="currentColor"/>
<path d="M18.5864 4.63574V19.6161H20.9425V6.9917H47.6438V29.505H20.9425V26.6712H18.5864V31.8609H49.9999V4.63574H18.5864Z" fill="currentColor"/>
<path d="M30.4501 37.9489C30.4501 36.1128 28.9623 34.6257 27.1271 34.6257C25.291 34.6257 23.8032 36.1128 23.8032 37.9489C23.8032 39.7833 25.291 41.2719 27.1271 41.2719C28.9622 41.2719 30.4501 39.7833 30.4501 37.9489Z" fill="currentColor"/>
<path d="M27.1271 43.052C24.7581 43.052 22.7457 44.6066 21.9727 46.7824H32.2817C31.5087 44.6065 29.4962 43.052 27.1271 43.052Z" fill="currentColor"/>
<path d="M44.7826 37.9489C44.7826 36.1128 43.2948 34.6257 41.4596 34.6257C39.6235 34.6257 38.1357 36.1128 38.1357 37.9489C38.1357 39.7833 39.6235 41.2719 41.4596 41.2719C43.2948 41.2719 44.7826 39.7833 44.7826 37.9489Z" fill="currentColor"/>
<path d="M41.4595 43.052C39.0905 43.052 37.0781 44.6066 36.3049 46.7824H46.614C45.841 44.6065 43.8286 43.052 41.4595 43.052Z" fill="currentColor"/>
</svg>
