<svg width="currentWidth" height="currentHeight" viewBox="0 0 50 50" fill="none" xmlns="http://www.w3.org/2000/svg">
<path fill-rule="evenodd" clip-rule="evenodd" d="M32.3714 30.5263C32.8805 31.0342 32.8805 31.8676 32.3714 32.3755C31.8635 32.8833 31.038 32.8833 30.5288 32.3755L25.0127 26.8542L19.4576 32.4144C18.9445 32.9223 18.1138 32.9223 17.6007 32.4144C17.089 31.8935 17.089 31.0602 17.6007 30.5524L23.1558 24.992L17.6397 19.4838C17.1306 18.9759 17.1306 18.1425 17.6397 17.6346C18.1463 17.1268 18.9719 17.1268 19.481 17.6346L24.9971 23.1559L30.5939 17.5566C31.107 17.0487 31.9364 17.0487 32.4495 17.5566C32.9613 18.0774 32.9613 18.8977 32.4495 19.4186L26.854 25.0181L32.3714 30.5263ZM25.0049 4.17004C13.4975 4.17004 4.16992 13.4937 4.16992 25.005C4.16992 36.5164 13.4975 45.84 25.0049 45.84C36.5124 45.84 45.8399 36.5164 45.8399 25.005C45.8399 13.4937 36.5124 4.17004 25.0049 4.17004Z" fill="currentColor"/>
</svg>
