<svg width="currentWidth" height="currentHeight" viewBox="0 0 50 50" fill="none" xmlns="http://www.w3.org/2000/svg">
<path fill-rule="evenodd" clip-rule="evenodd" d="M19.3602 2.69356C19.7509 2.30287 20.2808 2.08337 20.8333 2.08337H37.5C40.9519 2.08337 43.75 4.8816 43.75 8.33337V41.6667C43.75 45.1186 40.9519 47.9167 37.5 47.9167H12.5C9.04823 47.9167 6.25 45.1186 6.25 41.6667V16.6667C6.25 16.1142 6.4695 15.5843 6.86019 15.1936L19.3602 2.69356ZM37.5 6.25004H22.9167V16.6667C22.9167 17.8173 21.984 18.75 20.8333 18.75H10.4167V41.6667C10.4167 42.8173 11.3494 43.75 12.5 43.75H37.5C38.6506 43.75 39.5833 42.8173 39.5833 41.6667V8.33337C39.5833 7.18279 38.6506 6.25004 37.5 6.25004ZM13.3629 14.5834H18.75V9.19631L13.3629 14.5834ZM14.5833 27.0834C14.5833 25.9327 15.5161 25 16.6667 25H33.3333C34.484 25 35.4167 25.9327 35.4167 27.0834C35.4167 28.234 34.484 29.1667 33.3333 29.1667H16.6667C15.5161 29.1667 14.5833 28.234 14.5833 27.0834ZM14.5833 35.4167C14.5833 34.2661 15.5161 33.3334 16.6667 33.3334H33.3333C34.484 33.3334 35.4167 34.2661 35.4167 35.4167C35.4167 36.5673 34.484 37.5 33.3333 37.5H16.6667C15.5161 37.5 14.5833 36.5673 14.5833 35.4167Z" fill="currentColor"/>
</svg>
