<svg width="currentWidth" height="currentHeight" viewBox="0 0 50 50" fill="none" xmlns="http://www.w3.org/2000/svg">
<g clip-path="url(#clip0_41_1174)">
<path d="M24.9999 32.2917C24.7257 32.2933 24.4539 32.2408 24.2001 32.1371C23.9463 32.0334 23.7154 31.8806 23.5207 31.6876L15.1874 23.3542C14.9932 23.16 14.8391 22.9294 14.7339 22.6756C14.6288 22.4218 14.5747 22.1498 14.5747 21.8751C14.5747 21.6004 14.6288 21.3283 14.7339 21.0745C14.8391 20.8207 14.9932 20.5901 15.1874 20.3959C15.3816 20.2016 15.6122 20.0476 15.866 19.9424C16.1198 19.8373 16.3919 19.7832 16.6666 19.7832C16.9413 19.7832 17.2133 19.8373 17.4671 19.9424C17.7209 20.0476 17.9515 20.2016 18.1457 20.3959L24.9999 27.2917L31.8749 20.6667C32.0665 20.4536 32.3001 20.2824 32.561 20.1636C32.8218 20.0449 33.1044 19.9813 33.3909 19.9768C33.6775 19.9722 33.9619 20.0268 34.2264 20.1372C34.4909 20.2476 34.7298 20.4114 34.9281 20.6184C35.1264 20.8253 35.2799 21.0709 35.3789 21.3398C35.478 21.6088 35.5205 21.8953 35.5037 22.1814C35.487 22.4675 35.4114 22.7471 35.2817 23.0027C35.152 23.2583 34.971 23.4843 34.7499 23.6667L26.4166 31.7084C26.0356 32.0757 25.5291 32.2843 24.9999 32.2917Z" fill="currentColor"/>
</g>
<defs>
<clipPath id="clip0_41_1174">
<rect width="50" height="50" fill="transparent"/>
</clipPath>
</defs>
</svg>
