<svg width="currentWidth" height="currentHeight" viewBox="0 0 50 50" fill="none" xmlns="http://www.w3.org/2000/svg">
<rect width="50" height="50" stroke="transparent"/>
<path d="M37.5 25.0001H31.25M43.75 16.6667H6.25M37.5 33.3334H31.25M27.0833 39.5834C26.2954 36.0174 22.864 33.3334 18.75 33.3334C14.6513 33.3334 11.2299 35.9976 10.4255 39.544M10.4255 39.544C11.0787 39.5834 11.8832 39.5834 12.9167 39.5834H37.0833C39.4169 39.5834 40.5838 39.5834 41.475 39.1292C42.259 38.7299 42.8965 38.0924 43.2958 37.3084C43.75 36.4172 43.75 35.2503 43.75 32.9167V17.0834C43.75 14.7499 43.75 13.5831 43.2958 12.6918C42.8965 11.9078 42.259 11.2704 41.475 10.8709C40.5838 10.4167 39.4169 10.4167 37.0833 10.4167H12.9167C10.5831 10.4167 9.41633 10.4167 8.52504 10.8709C7.74102 11.2704 7.1036 11.9078 6.70415 12.6918C6.25 13.5831 6.25 14.7499 6.25 17.0834V32.9167C6.25 35.2503 6.25 36.4172 6.70415 37.3084C7.1036 38.0924 7.74102 38.7299 8.52504 39.1292C9.02162 39.3824 9.60373 39.4942 10.4255 39.544ZM18.75 25.0001H18.7708M20.8333 25.0001C20.8333 26.1507 19.9006 27.0834 18.75 27.0834C17.5994 27.0834 16.6667 26.1507 16.6667 25.0001C16.6667 23.8495 17.5994 22.9167 18.75 22.9167C19.9006 22.9167 20.8333 23.8495 20.8333 25.0001Z" stroke="currentColor" stroke-width="4" stroke-linecap="round" stroke-linejoin="round"/>
</svg>
