<svg width="currentWidth" height="currentHeight" viewBox="0 0 50 50" fill="none" xmlns="http://www.w3.org/2000/svg">
<g clip-path="url(#clip0_51_218)">
<path d="M18.6033 3.11197C18.8275 3.11197 19.0426 3.20096 19.2013 3.35936C19.36 3.51777 19.4493 3.73269 19.4497 3.95691V46.0431C19.4493 46.2674 19.36 46.4823 19.2013 46.6407C19.0426 46.7991 18.8275 46.8881 18.6033 46.8881H6.67981C6.45573 46.8881 6.24081 46.799 6.08236 46.6406C5.92391 46.4821 5.83487 46.2672 5.83487 46.0431V3.95691C5.83487 3.73283 5.92391 3.51791 6.08236 3.35946C6.24081 3.20101 6.45573 3.11197 6.67981 3.11197H18.6033ZM18.6033 3.06243e-07H6.67981C6.16013 -0.000204172 5.64549 0.101991 5.16533 0.300769C4.68517 0.499548 4.24881 0.791066 3.88134 1.15854C3.51387 1.52601 3.22245 1.96227 3.02367 2.44243C2.82489 2.92259 2.7227 3.43723 2.7229 3.95691V46.0431C2.7227 46.5628 2.82489 47.0775 3.02367 47.5576C3.22245 48.0378 3.51387 48.474 3.88134 48.8415C4.24881 49.209 4.68517 49.5005 5.16533 49.6993C5.64549 49.8981 6.16013 50.0003 6.67981 50H18.6033C19.123 50.0003 19.6377 49.898 20.1179 49.6993C20.5982 49.5005 21.0346 49.2091 21.4022 48.8416C21.7698 48.4742 22.0614 48.0379 22.2604 47.5577C22.4593 47.0775 22.5617 46.5629 22.5617 46.0431V3.95691C22.5617 3.43716 22.4593 2.92251 22.2604 2.44234C22.0614 1.96217 21.7698 1.52589 21.4022 1.15844C21.0346 0.790992 20.5982 0.499529 20.1179 0.300769C19.6377 0.10201 19.123 -0.00020408 18.6033 3.06243e-07Z" fill="currentColor"/>
<path d="M43.3044 3.11197C43.5287 3.11197 43.7438 3.20096 43.9025 3.35936C44.0612 3.51777 44.1505 3.73269 44.1509 3.95691V46.0431C44.1505 46.2674 44.0612 46.4823 43.9025 46.6407C43.7438 46.7991 43.5287 46.8881 43.3044 46.8881H31.381C31.1569 46.8881 30.942 46.799 30.7835 46.6406C30.6251 46.4821 30.536 46.2672 30.536 46.0431V3.95691C30.536 3.73283 30.6251 3.51791 30.7835 3.35946C30.942 3.20101 31.1569 3.11197 31.381 3.11197H43.3044ZM43.3044 3.06243e-07H31.381C30.8613 -0.000204172 30.3467 0.101991 29.8665 0.300769C29.3863 0.499548 28.95 0.791066 28.5825 1.15854C28.215 1.52601 27.9236 1.96227 27.7248 2.44243C27.5261 2.92259 27.4239 3.43723 27.4241 3.95691V46.0431C27.4239 46.5628 27.5261 47.0775 27.7248 47.5576C27.9236 48.0378 28.215 48.474 28.5825 48.8415C28.95 49.209 29.3863 49.5005 29.8665 49.6993C30.3467 49.8981 30.8613 50.0003 31.381 50H43.3044C43.8242 50.0003 44.3389 49.898 44.8191 49.6993C45.2994 49.5005 45.7358 49.2091 46.1034 48.8416C46.471 48.4742 46.7626 48.0379 46.9615 47.5577C47.1605 47.0775 47.2629 46.5629 47.2629 46.0431V3.95691C47.2629 3.43716 47.1605 2.92251 46.9615 2.44234C46.7626 1.96217 46.471 1.52589 46.1034 1.15844C45.7358 0.790992 45.2994 0.499529 44.8191 0.300769C44.3389 0.10201 43.8242 -0.00020408 43.3044 3.06243e-07Z" fill="currentColor"/>
<path d="M21.4928 7.01294H4.37695V10.1249H21.4928V7.01294Z" fill="currentColor"/>
<path d="M45.2216 28.7966H29.4673V31.9086H45.2216V28.7966Z" fill="currentColor"/>
<path d="M12.9381 44.4406C12.0047 44.4406 11.0922 44.1638 10.3161 43.6452C9.54005 43.1267 8.93519 42.3896 8.578 41.5273C8.22081 40.665 8.12733 39.7161 8.30943 38.8006C8.49152 37.8852 8.94101 37.0442 9.60102 36.3842C10.261 35.7242 11.1019 35.2747 12.0173 35.0926C12.9328 34.9105 13.8818 35.004 14.7441 35.3612C15.6064 35.7184 16.3435 36.3233 16.862 37.0993C17.3806 37.8754 17.6574 38.7879 17.6574 39.7213C17.6562 40.9725 17.1586 42.1722 16.2738 43.057C15.389 43.9418 14.1893 44.4394 12.9381 44.4406ZM12.9381 38.1155C12.6201 38.1155 12.3092 38.2098 12.0449 38.3865C11.7805 38.5632 11.5745 38.8143 11.4529 39.108C11.3313 39.4018 11.2996 39.7251 11.3618 40.0369C11.4239 40.3488 11.5771 40.6352 11.802 40.86C12.027 41.0847 12.3135 41.2376 12.6254 41.2995C12.9373 41.3613 13.2606 41.3292 13.5542 41.2074C13.8479 41.0855 14.0988 40.8792 14.2752 40.6146C14.4517 40.3501 14.5457 40.0392 14.5454 39.7213C14.545 39.2952 14.3755 38.8868 14.0741 38.5857C13.7727 38.2846 13.3641 38.1155 12.9381 38.1155Z" fill="currentColor"/>
<path d="M37.3436 44.4406C36.4102 44.4406 35.4977 44.1638 34.7217 43.6452C33.9456 43.1267 33.3407 42.3896 32.9835 41.5273C32.6263 40.665 32.5328 39.7161 32.7149 38.8006C32.897 37.8852 33.3465 37.0442 34.0065 36.3842C34.6665 35.7242 35.5074 35.2747 36.4228 35.0926C37.3383 34.9105 38.2873 35.004 39.1496 35.3612C40.012 35.7184 40.749 36.3233 41.2675 37.0993C41.7861 37.8754 42.0629 38.7879 42.0629 39.7213C42.0621 40.9726 41.5645 42.1726 40.6797 43.0575C39.7948 43.9423 38.595 44.4398 37.3436 44.4406ZM37.3436 38.1155C37.0256 38.1155 36.7147 38.2098 36.4504 38.3865C36.186 38.5632 35.9801 38.8143 35.8584 39.108C35.7368 39.4018 35.7051 39.7251 35.7673 40.0369C35.8294 40.3488 35.9826 40.6352 36.2076 40.86C36.4325 41.0847 36.719 41.2376 37.0309 41.2995C37.3428 41.3613 37.6661 41.3292 37.9597 41.2074C38.2534 41.0855 38.5043 40.8792 38.6808 40.6146C38.8572 40.3501 38.9513 40.0392 38.9509 39.7213C38.9505 39.2952 38.781 38.8868 38.4796 38.5857C38.1782 38.2846 37.7696 38.1155 37.3436 38.1155Z" fill="currentColor"/>
</g>
<defs>
<clipPath id="clip0_51_218">
<rect width="50" height="50" fill="transparent"/>
</clipPath>
</defs>
</svg>
