<svg width="currentWidth" height="currentHeight" viewBox="0 0 50 50" fill="none" xmlns="http://www.w3.org/2000/svg">
<path fill-rule="evenodd" clip-rule="evenodd" d="M47.9166 8.33325C47.9166 4.88148 45.1185 2.08325 41.6666 2.08325H8.33325C4.88148 2.08325 2.08325 4.88148 2.08325 8.33325V41.6666C2.08325 45.1185 4.88148 47.9166 8.33325 47.9166H41.6666C45.1185 47.9166 47.9166 45.1185 47.9166 41.6666V8.33325ZM43.7499 8.33325C43.7499 7.18267 42.8172 6.24992 41.6666 6.24992H8.33325C7.18267 6.24992 6.24992 7.18267 6.24992 8.33325V41.6666C6.24992 42.8172 7.18267 43.7499 8.33325 43.7499H41.6666C42.8172 43.7499 43.7499 42.8172 43.7499 41.6666V8.33325Z" fill="currentColor"/>
<path d="M10.0139 36.5024L19.0044 20.0198C19.7941 18.5722 21.8728 18.5722 22.6624 20.0198L29.2636 32.1222L31.5247 28.1655C32.3244 26.7659 34.3424 26.7659 35.1422 28.1655L39.8857 36.4665C40.6792 37.8553 39.6763 39.5834 38.0767 39.5834H11.8429C10.2615 39.5834 9.25667 37.8907 10.0139 36.5024Z" fill="currentColor"/>
<path d="M37.5001 16.6667C37.5001 18.9679 35.6347 20.8333 33.3334 20.8333C31.0322 20.8333 29.1667 18.9679 29.1667 16.6667C29.1667 14.3655 31.0322 12.5 33.3334 12.5C35.6347 12.5 37.5001 14.3655 37.5001 16.6667Z" fill="currentColor"/>
</svg>
