<svg width="currentWidth" height="currentHeight" viewBox="0 0 50 50" fill="none" xmlns="http://www.w3.org/2000/svg">
<path opacity="0.5" d="M45.8334 25.0001C45.8334 36.5059 36.5059 45.8334 25.0001 45.8334C13.4941 45.8334 4.16675 36.5059 4.16675 25.0001C4.16675 13.4941 13.4941 4.16675 25.0001 4.16675C36.5059 4.16675 45.8334 13.4941 45.8334 25.0001Z" fill="currentColor"/>
<path d="M25 36.9792C25.8629 36.9792 26.5625 36.2797 26.5625 35.4167V22.9167C26.5625 22.0538 25.8629 21.3542 25 21.3542C24.1371 21.3542 23.4375 22.0538 23.4375 22.9167V35.4167C23.4375 36.2797 24.1371 36.9792 25 36.9792Z" fill="currentColor"/>
<path d="M25.0001 14.5833C26.1507 14.5833 27.0834 15.516 27.0834 16.6666C27.0834 17.8172 26.1507 18.7499 25.0001 18.7499C23.8495 18.7499 22.9167 17.8172 22.9167 16.6666C22.9167 15.516 23.8495 14.5833 25.0001 14.5833Z" fill="currentColor"/>
</svg>
