<svg width="currentWidth" height="currentHeight" viewBox="0 0 68 66" fill="none" xmlns="http://www.w3.org/2000/svg">
<g clip-path="url(#clip0_184_444)">
<path d="M23.818 32.5649C23.8169 32.2085 23.8882 31.8554 24.0281 31.5258C24.1679 31.1962 24.3734 30.8966 24.6329 30.6442L35.8291 19.8415C36.0901 19.5897 36.3997 19.3902 36.7401 19.2545C37.0806 19.1188 37.4453 19.0494 37.8134 19.0504C38.1815 19.0514 38.5458 19.1228 38.8855 19.2604C39.2252 19.398 39.5337 19.5991 39.7933 19.8524C40.0529 20.1056 40.2585 20.4059 40.3985 20.7363C40.5385 21.0666 40.61 21.4204 40.609 21.7775C40.608 22.1346 40.5346 22.4881 40.3928 22.8176C40.251 23.1471 40.0437 23.4464 39.7827 23.6982L30.518 32.5833L39.371 41.545C39.6559 41.795 39.8845 42.0992 40.0427 42.4388C40.2009 42.7783 40.2851 43.1459 40.2902 43.5184C40.2952 43.891 40.221 44.2605 40.0721 44.6039C39.9233 44.9474 39.7029 45.2573 39.4249 45.5143C39.147 45.7714 38.8173 45.97 38.4566 46.0978C38.0958 46.2255 37.7118 46.2797 37.3284 46.2569C36.9451 46.2341 36.5707 46.1349 36.2287 45.9653C35.8867 45.7957 35.5844 45.5596 35.3408 45.2715L24.5946 34.4087C24.1038 33.9121 23.8261 33.2529 23.818 32.5649Z" fill="currentColor"/>
</g>
<defs>
<clipPath id="clip0_184_444">
<rect width="currentWidth" height="currentColor" fill="currentColor" transform="translate(67.1776 0.18335) rotate(90.1568)"/>
</clipPath>
</defs>
</svg>
