<svg width="currentWidth" height="currentHeight" viewBox="0 0 50 50" fill="none" xmlns="http://www.w3.org/2000/svg">
<path d="M36.0269 29.7768C35.2133 30.5904 35.2133 31.9095 36.0269 32.7231C36.8404 33.5366 38.1596 33.5366 38.9731 32.7231L45.0419 26.6543C45.0731 26.6231 45.1035 26.591 45.1327 26.5583C45.5625 26.1766 45.8333 25.62 45.8333 25C45.8333 24.38 45.5625 23.8233 45.1327 23.4416C45.1035 23.4089 45.0731 23.3768 45.0419 23.3456L38.9731 17.2768C38.1596 16.4632 36.8404 16.4632 36.0269 17.2768C35.2133 18.0904 35.2133 19.4095 36.0269 20.2231L38.7204 22.9166H27.0833C25.9327 22.9166 25 23.8493 25 25C25 26.1506 25.9327 27.0833 27.0833 27.0833H38.7204L36.0269 29.7768Z" fill="currentColor"/>
<path d="M10.4167 4.16663C6.96498 4.16663 4.16675 6.96486 4.16675 10.4166V39.5833C4.16675 43.0352 6.96498 45.8333 10.4167 45.8333H30.2084C33.0849 45.8333 35.4167 43.5014 35.4167 40.625V34.8595C35.1082 34.6812 34.8178 34.4602 34.5538 34.1962C33.1905 32.8329 32.9695 30.7602 33.8905 29.1666H27.0834C24.7822 29.1666 22.9167 27.3012 22.9167 25C22.9167 22.6987 24.7822 20.8333 27.0834 20.8333H33.8905C32.9695 19.2398 33.1905 17.1669 34.5538 15.8037C34.8178 15.5398 35.1082 15.3186 35.4167 15.1403V9.37496C35.4167 6.49848 33.0849 4.16663 30.2084 4.16663H10.4167Z" fill="currentColor"/>
</svg>
