<svg width="currentWidth" height="currentHeight" viewBox="0 0 50 50" fill="none" xmlns="http://www.w3.org/2000/svg">
<path fill-rule="evenodd" clip-rule="evenodd" d="M8.33333 39.5833C7.18275 39.5833 6.25 38.6505 6.25 37.4999C6.25 36.3493 7.18275 35.4166 8.33333 35.4166H41.6667C42.8173 35.4166 43.75 36.3493 43.75 37.4999C43.75 38.6505 42.8173 39.5833 41.6667 39.5833H8.33333ZM6.25 24.9999C6.25 26.1505 7.18275 27.0833 8.33333 27.0833H41.6667C42.8173 27.0833 43.75 26.1505 43.75 24.9999C43.75 23.8493 42.8173 22.9166 41.6667 22.9166H8.33333C7.18275 22.9166 6.25 23.8493 6.25 24.9999ZM6.25 12.4999C6.25 13.6505 7.18275 14.5833 8.33333 14.5833H41.6667C42.8173 14.5833 43.75 13.6505 43.75 12.4999C43.75 11.3493 42.8173 10.4166 41.6667 10.4166H8.33333C7.18275 10.4166 6.25 11.3493 6.25 12.4999Z" fill="currentColor"/>
</svg>
