<svg width="currentWidth" height="currentHeight" viewBox="0 0 50 50" fill="none" xmlns="http://www.w3.org/2000/svg">
<path d="M41.6148 49.9912H40.2907C39.9283 49.9912 39.5786 49.8574 39.309 49.6154L36.0329 46.6769L32.7568 49.6154C32.4872 49.8574 32.1375 49.9912 31.7751 49.9912H29.2578C28.8961 49.9912 28.5469 49.8578 28.2775 49.6166L24.0196 45.8065C23.4145 45.265 23.363 44.3354 23.9044 43.7305C24.4459 43.1251 25.3755 43.0738 25.9807 43.6152L29.8197 47.0507H31.2124L35.0512 43.6071C35.6098 43.1061 36.4563 43.1061 37.0147 43.6071L40.1444 46.4146V3.57939L37.0161 6.39297C36.4577 6.89512 35.6104 6.8958 35.0512 6.39434L30.7934 2.57559C30.1889 2.0333 30.1383 1.10381 30.6805 0.499316C31.2225 -0.105273 32.1523 -0.155859 32.7567 0.386426L36.0315 3.32344L39.3072 0.376953C39.5774 0.134375 39.9275 0 40.2906 0H41.6147C42.4268 0 43.085 0.658398 43.085 1.47031V48.5208C43.0852 49.3328 42.4269 49.9912 41.6148 49.9912Z" fill="currentColor"/>
<path d="M18.2245 50C17.8749 50 17.524 49.8761 17.2434 49.6242L13.9661 46.6849L10.6899 49.6165C10.4203 49.8578 10.0712 49.9911 9.70938 49.9911H8.38535C7.57324 49.9911 6.91504 49.3327 6.91504 48.5208V1.47031C6.91504 0.658398 7.57334 0 8.38535 0H9.70938C10.0718 0 10.4215 0.133789 10.6911 0.375781L13.9672 3.31436L17.2432 0.375781C17.5129 0.133789 17.8625 0 18.2249 0H20.7423C21.1053 0 21.4556 0.134277 21.7255 0.376953L25.9833 4.20645C26.587 4.74941 26.6362 5.6793 26.0933 6.28301C25.5503 6.88672 24.6206 6.93564 24.0169 6.39297L20.1783 2.94062H18.7877L14.9489 6.38418C14.3903 6.88525 13.5438 6.88525 12.9854 6.38418L9.85566 3.57676V46.4168L12.9867 43.6149C13.5454 43.1151 14.3907 43.1153 14.9488 43.6161L19.2066 47.435C19.8112 47.9772 19.8617 48.9067 19.3195 49.5112C19.0292 49.8351 18.6275 50 18.2245 50Z" fill="currentColor"/>
<path d="M34.9249 12.8889H15.0754V19.9862H34.9249V12.8889Z" fill="currentColor"/>
<path d="M34.9247 21.4577H15.0753C14.2632 21.4577 13.605 20.7993 13.605 19.9874V12.8894C13.605 12.0775 14.2633 11.4191 15.0753 11.4191H34.9247C35.7368 11.4191 36.395 12.0775 36.395 12.8894V19.9874C36.395 20.7994 35.7367 21.4577 34.9247 21.4577ZM16.5456 18.517H33.4544V14.3597H16.5456V18.517Z" fill="currentColor"/>
<path d="M21.1271 30.201H15.0753C14.2632 30.201 13.605 29.5426 13.605 28.7307C13.605 27.9188 14.2633 27.2604 15.0753 27.2604H21.1271C21.9393 27.2604 22.5975 27.9188 22.5975 28.7307C22.5975 29.5426 21.9392 30.201 21.1271 30.201Z" fill="currentColor"/>
<path d="M21.1271 38.0429H15.0753C14.2632 38.0429 13.605 37.3845 13.605 36.5726C13.605 35.7607 14.2633 35.1023 15.0753 35.1023H21.1271C21.9393 35.1023 22.5975 35.7607 22.5975 36.5726C22.5975 37.3845 21.9392 38.0429 21.1271 38.0429Z" fill="currentColor"/>
<path d="M30.4359 37.1405C32.915 37.1405 34.9248 35.1307 34.9248 32.6516C34.9248 30.1725 32.915 28.1627 30.4359 28.1627C27.9568 28.1627 25.947 30.1725 25.947 32.6516C25.947 35.1307 27.9568 37.1405 30.4359 37.1405Z" fill="currentColor"/>
<path d="M30.4359 38.6109C27.1499 38.6109 24.4766 35.9376 24.4766 32.6517C24.4766 29.3657 27.1499 26.6924 30.4359 26.6924C33.722 26.6924 36.3952 29.3657 36.3952 32.6517C36.3952 35.9376 33.7219 38.6109 30.4359 38.6109ZM30.4359 29.633C28.7714 29.633 27.4172 30.9872 27.4172 32.6516C27.4172 34.316 28.7714 35.6701 30.4359 35.6701C32.1004 35.6701 33.4545 34.3159 33.4545 32.6516C33.4546 30.9872 32.1004 29.633 30.4359 29.633Z" fill="currentColor"/>
</svg>
