<svg width="currentWidth" height="currentHeight" viewBox="0 0 50 50" fill="none" xmlns="http://www.w3.org/2000/svg">
<path d="M43.75 34.375C42.3187 34.375 40.625 32.6813 40.625 31.25V15.625C40.625 7.01016 33.6148 0 25 0C16.3852 0 9.375 7.01016 9.375 15.625V31.25C9.375 32.6508 7.65078 34.375 6.25 34.375C4.52266 34.375 3.125 35.7727 3.125 37.5C3.125 39.2273 4.52266 40.625 6.25 40.625H43.75C45.4773 40.625 46.875 39.2273 46.875 37.5C46.875 35.7727 45.4773 34.375 43.75 34.375Z" fill="currentColor"/>
<path d="M25 50C28.4516 50 31.25 47.2016 31.25 43.75H18.75C18.75 47.2016 21.5484 50 25 50Z" fill="currentColor"/>
</svg>
