<svg width="currentWidth" height="currentHeight" viewBox="0 0 50 50" fill="none" xmlns="http://www.w3.org/2000/svg">
<g clip-path="url(#clip0_66_1541)">
<path d="M14.5833 12.5C15.1358 12.5 15.6657 12.2805 16.0564 11.8898C16.4471 11.4991 16.6666 10.9692 16.6666 10.4167C16.6666 9.86417 16.4471 9.33427 16.0564 8.94357C15.6657 8.55287 15.1358 8.33337 14.5833 8.33337H10.4166C9.86405 8.33337 9.33415 8.55287 8.94345 8.94357C8.55275 9.33427 8.33325 9.86417 8.33325 10.4167V39.5834C8.33325 40.1359 8.55275 40.6658 8.94345 41.0565C9.33415 41.4472 9.86405 41.6667 10.4166 41.6667H14.5833C15.1358 41.6667 15.6657 41.4472 16.0564 41.0565C16.4471 40.6658 16.6666 40.1359 16.6666 39.5834C16.6666 39.0308 16.4471 38.5009 16.0564 38.1102C15.6657 37.7195 15.1358 37.5 14.5833 37.5H12.4999V12.5H14.5833Z" fill="currentColor"/>
<path d="M43.375 23.7917L37.5 15.4584C37.1814 15.0093 36.6979 14.7045 36.1553 14.6108C35.6126 14.5171 35.0549 14.6421 34.6042 14.9584C34.3788 15.1163 34.187 15.3172 34.0398 15.5497C33.8926 15.7821 33.7928 16.0414 33.7463 16.3125C33.6999 16.5837 33.7075 16.8614 33.769 17.1296C33.8304 17.3978 33.9443 17.6511 34.1042 17.8751L37.6875 22.9167H20.8333C20.2808 22.9167 19.7509 23.1362 19.3602 23.5269C18.9695 23.9176 18.75 24.4475 18.75 25.0001C18.75 25.5526 18.9695 26.0825 19.3602 26.4732C19.7509 26.8639 20.2808 27.0834 20.8333 27.0834H37.5L33.75 32.0834C33.5858 32.3023 33.4664 32.5513 33.3985 32.8163C33.3306 33.0814 33.3156 33.3572 33.3543 33.628C33.393 33.8989 33.4846 34.1594 33.624 34.3948C33.7634 34.6303 33.9478 34.8359 34.1667 35.0001C34.5273 35.2705 34.9659 35.4167 35.4167 35.4167C35.7401 35.4167 36.0591 35.3414 36.3484 35.1968C36.6376 35.0521 36.8893 34.8421 37.0833 34.5834L43.3333 26.2501C43.6001 25.8977 43.748 25.4696 43.7555 25.0277C43.763 24.5858 43.6297 24.1529 43.375 23.7917Z" fill="currentColor"/>
</g>
<defs>
<clipPath id="clip0_66_1541">
<rect width="50" height="50" fill="transparent"/>
</clipPath>
</defs>
</svg>
