<svg width="currentWidth" height="currentHeight" viewBox="0 0 50 50" fill="none" xmlns="http://www.w3.org/2000/svg">
<g clip-path="url(#clip0_40_448)">
<path fill-rule="evenodd" clip-rule="evenodd" d="M20.8333 2.08325C20.2808 2.08325 19.7509 2.30275 19.3602 2.69344L6.86019 15.1934C6.4695 15.5841 6.25 16.114 6.25 16.6666V41.6666C6.25 45.1185 9.04823 47.9166 12.5 47.9166H14.5833C15.7339 47.9166 16.6667 46.9839 16.6667 45.8333C16.6667 44.6826 15.7339 43.7499 14.5833 43.7499H12.5C11.3494 43.7499 10.4167 42.8172 10.4167 41.6666V18.7499H20.8333C21.984 18.7499 22.9167 17.8172 22.9167 16.6666V6.24992H37.5C38.6506 6.24992 39.5833 7.18267 39.5833 8.33325V22.9166C39.5833 24.0672 40.516 24.9999 41.6667 24.9999C42.8173 24.9999 43.75 24.0672 43.75 22.9166V8.33325C43.75 4.88148 40.9519 2.08325 37.5 2.08325H20.8333ZM18.75 14.5833H13.3629L18.75 9.19619V14.5833ZM21.4746 49.0891C21.8035 49.4947 22.2817 49.8274 22.8846 49.9503C23.4492 50.0658 23.9423 49.9603 24.284 49.8358C24.9127 49.6064 25.4075 49.1739 25.7302 48.8553C26.2377 48.3551 26.769 47.6766 27.2977 46.9101C29.6087 46.1128 32.8565 45.3791 36.0146 44.917C37.7702 44.6599 39.4094 44.5005 40.7894 44.4464C41.336 45.0899 41.8333 45.6445 42.2475 46.0635C42.5067 46.3255 42.7948 46.598 43.0767 46.8064C43.2037 46.9003 43.4415 47.0666 43.7479 47.186C43.9073 47.248 44.9544 47.6478 45.9217 46.8685C46.4908 46.4099 47.0177 45.8966 47.3842 45.3176C47.7525 44.736 48.0998 43.848 47.8106 42.8385C47.5273 41.8501 46.7892 41.296 46.2458 41.0099C45.6915 40.7183 45.0685 40.5557 44.4971 40.4555C43.9792 40.3647 43.3933 40.3078 42.7569 40.2799C41.4671 38.6697 39.9594 36.667 38.5271 34.6245C37.2708 32.8333 36.0996 31.0499 35.1896 29.4972C35.2831 29.0966 35.3612 28.7116 35.4219 28.3458C35.5256 27.7191 35.5883 27.0916 35.5746 26.5022C35.5615 25.9368 35.4758 25.256 35.1667 24.6201C34.8237 23.9155 34.2 23.2741 33.2671 23.0228C32.43 22.7974 31.6319 22.9664 31.0196 23.1928C30.0748 23.5424 29.5569 24.3178 29.3779 25.0751C29.2267 25.716 29.3085 26.3347 29.4033 26.7768C29.5992 27.6905 30.056 28.7408 30.5823 29.7693C30.6292 29.8608 30.6773 29.9535 30.7265 30.0468C30.2298 31.6816 29.4954 33.6099 28.6233 35.6039C27.345 38.5268 25.8448 41.4241 24.5527 43.4958C23.6706 43.8653 22.8567 44.2882 22.2387 44.7741C21.8179 45.1051 21.254 45.6437 20.9842 46.4308C20.6525 47.3987 20.8877 48.3653 21.4746 49.0891ZM35.4112 40.7941C33.7156 41.0422 31.9677 41.3678 30.3121 41.7482C31.0502 40.3172 31.7769 38.7918 32.4408 37.2737C32.8179 36.4114 33.181 35.5376 33.5177 34.673C34.0333 35.453 34.5712 36.2408 35.1156 37.0168C35.9544 38.2126 36.8196 39.3978 37.6581 40.5076C36.9137 40.5878 36.1598 40.6847 35.4112 40.7941ZM33.4602 25.8003C33.46 25.7976 33.4598 25.7964 33.4596 25.7964C33.4596 25.7962 33.4598 25.7995 33.4604 25.8066C33.4604 25.8041 33.4602 25.802 33.4602 25.8003Z" fill="currentColor"/>
</g>
<defs>
<clipPath id="clip0_40_448">
<rect width="50" height="50" fill="transparent"/>
</clipPath>
</defs>
</svg>
