<svg width="currentWidth" height="currentHeight" viewBox="0 0 50 50" fill="none" xmlns="http://www.w3.org/2000/svg">
<path d="M8.93506 7.13867H37.5063V26.7817H41.0776V3.56738H5.36328V46.4243H25V42.853H8.93506V7.13867Z" fill="currentColor"/>
<path d="M12.5063 10.71H33.9351V14.2813H12.5063V10.71ZM12.5063 17.853H30.3633V21.4243H12.5063V17.853ZM12.5063 24.9956H23.2207V28.5669H12.5063V24.9956ZM35.7202 28.5674C30.7891 28.5674 26.7915 32.5649 26.7915 37.4961C26.7915 42.4272 30.7891 46.4248 35.7202 46.4248C40.6514 46.4248 44.6489 42.4272 44.6489 37.4961C44.6489 32.5649 40.6519 28.5674 35.7202 28.5674ZM35.7202 42.853C32.7661 42.853 30.3633 40.4497 30.3633 37.4961C30.3633 34.542 32.7666 32.1392 35.7202 32.1392C38.6743 32.1392 41.0772 34.5425 41.0772 37.4961C41.0776 40.4497 38.6743 42.853 35.7202 42.853Z" fill="currentColor"/>
<path d="M37.0601 33.793H34.3813V38.0542L37.7695 41.4116L39.6548 39.5093L37.0601 36.938V33.793Z" fill="currentColor"/>
</svg>
