<!DOCTYPE svg PUBLIC "-//W3C//DTD SVG 1.1//EN" "http://www.w3.org/Graphics/SVG/1.1/DTD/svg11.dtd">

<!-- Uploaded to: SVG Repo, www.svgrepo.com, Transformed by: SVG Repo Mixer Tools -->
<svg fill="currentColor" width="currentWidth" height="currentHeight" viewBox="0 0 24 24" id="pickup-left" data-name="Line Color" xmlns="http://www.w3.org/2000/svg" class="icon line-color">

<g id="SVGRepo_bgCarrier" stroke-width="0"/>

<g id="SVGRepo_tracerCarrier" stroke-linecap="round" stroke-linejoin="round"/>

<g id="SVGRepo_iconCarrier">

<path id="primary" d="M19,16h1a1,1,0,0,0,1-1V11a1,1,0,0,0-1-1H11v6h4" style="fill: none; stroke: currentColor; stroke-linecap: round; stroke-linejoin: round; stroke-width: 2;"/>

<path id="primary-2" data-name="primary" d="M9,16h2V7a1,1,0,0,0-1-1H6.75a1,1,0,0,0-1,.73L5,9.5l-1.24.31a1,1,0,0,0-.76,1V15a1,1,0,0,0,1,1H5" style="fill: none; stroke: currentColor; stroke-linecap: round; stroke-linejoin: round; stroke-width: 2;"/>

<path id="secondary" d="M17,14a2,2,0,1,1-2,2A2,2,0,0,1,17,14ZM7,14a2,2,0,1,1-2,2A2,2,0,0,1,7,14Z" style="fill: none; stroke: currentColor; stroke-linecap: round; stroke-linejoin: round; stroke-width: 2;"/>

</g>

</svg>