<svg width="currentWidth" height="currentHeight" viewBox="0 0 50 50" fill="none" xmlns="http://www.w3.org/2000/svg">
<path d="M28.125 41.6667C28.125 43.3927 26.7259 44.7917 25 44.7917C23.2741 44.7917 21.875 43.3927 21.875 41.6667C21.875 39.9408 23.2741 38.5417 25 38.5417C26.7259 38.5417 28.125 39.9408 28.125 41.6667Z" fill="currentColor"/>
<path fill-rule="evenodd" clip-rule="evenodd" d="M31.8944 38.6496C31.4477 36.9825 32.437 35.269 34.104 34.8223L36.1164 34.283C37.7835 33.8364 39.4971 34.8257 39.9437 36.4928L41.0222 40.5175C41.4688 42.1846 40.4795 43.8981 38.8124 44.3448L36.8001 44.884C35.133 45.3307 33.4195 44.3414 32.9728 42.6743L31.8944 38.6496ZM34.6432 36.8346C34.0876 36.9835 33.7578 37.5547 33.9066 38.1104L34.9851 42.1351C35.134 42.6907 35.7052 43.0205 36.2609 42.8717L38.2732 42.3324C38.8289 42.1835 39.1587 41.6124 39.0098 41.0567L37.9313 37.032C37.7825 36.4763 37.2113 36.1465 36.6556 36.2954L34.6432 36.8346Z" fill="currentColor"/>
<path fill-rule="evenodd" clip-rule="evenodd" d="M10.0563 36.492C10.503 34.8249 12.2165 33.8356 13.8836 34.2823L15.8959 34.8215C17.563 35.2682 18.5524 36.9818 18.1057 38.6489L17.0273 42.6736C16.5806 44.3406 14.867 45.3299 13.2 44.8832L11.1876 44.3441C9.52049 43.8973 8.53117 42.1838 8.97786 40.5167L10.0563 36.492ZM13.3444 36.2947C12.7887 36.1457 12.2176 36.4755 12.0686 37.0313L10.9902 41.0559C10.8413 41.6116 11.1711 42.1828 11.7267 42.3317L13.7391 42.8708C14.2949 43.0198 14.866 42.69 15.0149 42.1343L16.0933 38.1096C16.2423 37.554 15.9125 36.9827 15.3567 36.8339L13.3444 36.2947Z" fill="currentColor"/>
<path fill-rule="evenodd" clip-rule="evenodd" d="M16.4978 40.6249H23.9584V32.3488C20.9692 32.6793 18.4034 34.4152 16.9368 36.8812C16.6767 36.3798 16.2149 35.9853 15.6264 35.8277L15.2067 35.7152C17.2175 32.4133 20.8514 30.2083 25.0001 30.2083C29.1493 30.2083 32.7832 32.4136 34.7941 35.716L34.3739 35.8285C33.7855 35.9862 33.3239 36.3804 33.0638 36.8816C31.5971 34.4154 29.0313 32.6793 26.0418 32.3488V40.6249H33.5023L33.9792 42.4047C34.0074 42.5101 34.0432 42.6115 34.0858 42.7083H25.0001H15.914C15.9569 42.6112 15.9928 42.5096 16.0211 42.4039L16.4978 40.6249ZM15.7257 43.0458C15.2947 43.6724 14.542 44.0261 13.7664 43.9342C14.0149 45.1716 14.4628 46.3376 15.0753 47.3965L16.8786 46.3534C16.3002 45.3532 15.901 44.2365 15.7257 43.0458ZM33.1216 46.3534C33.6999 45.3535 34.099 44.2369 34.2744 43.0464C34.7054 43.673 35.4581 44.0268 36.2338 43.935C35.9852 45.1721 35.5373 46.3378 34.9249 47.3965L33.1216 46.3534Z" fill="currentColor"/>
<path fill-rule="evenodd" clip-rule="evenodd" d="M15.625 17.7083V14.5833H17.7083V17.7083C17.7083 21.7353 20.9729 24.9999 25 24.9999C29.0271 24.9999 32.2917 21.7353 32.2917 17.7083V14.5833H34.375V17.7083C34.375 22.886 30.1777 27.0833 25 27.0833C19.8223 27.0833 15.625 22.886 15.625 17.7083Z" fill="currentColor"/>
<path fill-rule="evenodd" clip-rule="evenodd" d="M16.2489 6.51396C15.7192 6.94363 15.6251 7.24622 15.6251 7.39239C15.6251 8.89238 15.8672 10.0688 16.1025 10.8583C16.1726 11.0931 16.242 11.2938 16.3041 11.4583H33.696C33.7582 11.2938 33.8277 11.0933 33.8977 10.8584C34.133 10.069 34.3751 8.89255 34.3751 7.3924C34.3751 7.24622 34.2809 6.94363 33.7512 6.51396C33.2395 6.09892 32.4648 5.68896 31.4937 5.32768C29.5573 4.6072 27.0762 4.16659 25.0001 4.16659C22.9239 4.16659 20.4429 4.6072 18.5064 5.32768C17.5354 5.68896 16.7607 6.09892 16.2489 6.51396ZM33.0225 13.5416H16.9777C17.0475 13.6353 17.1328 13.7336 17.2371 13.8344C18.0231 14.5945 20.0297 15.6249 25.0001 15.6249C29.9705 15.6249 31.9771 14.5945 32.7631 13.8344C32.8674 13.7336 32.9527 13.6353 33.0225 13.5416ZM14.5707 12.7144C14.5505 12.6702 14.5287 12.6212 14.5056 12.5674C14.3932 12.3064 14.2487 11.9322 14.106 11.4534C13.8205 10.4955 13.5417 9.11821 13.5417 7.3924C13.5417 6.32889 14.2002 5.49321 14.9366 4.89591C15.6911 4.28398 16.6963 3.77828 17.78 3.37512C19.9528 2.5667 22.6801 2.08325 25.0001 2.08325C27.3201 2.08325 30.0474 2.5667 32.2202 3.37512C33.3038 3.77828 34.309 4.28398 35.0635 4.89591C35.8 5.49321 36.4584 6.32889 36.4584 7.39239C36.4584 9.11837 36.1797 10.4958 35.8941 11.4536C35.7514 11.9323 35.607 12.3065 35.4946 12.5675C35.4714 12.6213 35.4497 12.6702 35.4295 12.7144C35.4281 12.8912 35.4099 13.1178 35.3516 13.3781C35.2231 13.9533 34.9064 14.6599 34.2113 15.3321C32.8429 16.6553 30.1621 17.7083 25.0001 17.7083C19.8381 17.7083 17.1573 16.6553 15.7888 15.3321C15.0937 14.6599 14.7771 13.9533 14.6485 13.3781C14.5903 13.1178 14.5721 12.8912 14.5707 12.7144Z" fill="currentColor"/>
<path d="M20.8333 8.33341C20.8333 7.75812 21.2996 7.29175 21.8749 7.29175H28.1249C28.7002 7.29175 29.1666 7.75812 29.1666 8.33341C29.1666 8.90871 28.7002 9.37508 28.1249 9.37508H21.8749C21.2996 9.37508 20.8333 8.90871 20.8333 8.33341Z" fill="currentColor"/>
</svg>
