<svg width="67" height="65" viewBox="0 0 67 65" fill="none" xmlns="http://www.w3.org/2000/svg">
<g clip-path="url(#clip0_184_443)">
<path d="M43.2708 32.5C43.2729 32.8564 43.2025 33.2098 43.0636 33.5397C42.9247 33.8697 42.72 34.1698 42.4612 34.4229L31.2946 45.2562C31.0343 45.5088 30.7253 45.7091 30.3852 45.8457C30.0451 45.9824 29.6806 46.0527 29.3125 46.0527C28.9444 46.0527 28.5799 45.9824 28.2398 45.8457C27.8997 45.7091 27.5907 45.5088 27.3304 45.2562C27.0701 45.0037 26.8636 44.7039 26.7228 44.374C26.5819 44.0441 26.5094 43.6904 26.5094 43.3333C26.5094 42.9762 26.5819 42.6226 26.7228 42.2926C26.8636 41.9627 27.0701 41.6629 27.3304 41.4104L36.5708 32.5L27.6933 23.5625C27.4078 23.3133 27.1783 23.0097 27.0192 22.6706C26.8601 22.3315 26.7748 21.9642 26.7688 21.5916C26.7627 21.2191 26.8359 20.8493 26.9838 20.5055C27.1318 20.1617 27.3512 19.8511 27.6285 19.5933C27.9058 19.3355 28.2349 19.136 28.5953 19.0073C28.9557 18.8785 29.3396 18.8233 29.723 18.845C30.1064 18.8668 30.481 18.965 30.8235 19.1336C31.166 19.3022 31.4689 19.5376 31.7133 19.825L42.4892 30.6583C42.9814 31.1536 43.2608 31.8121 43.2708 32.5Z" fill="white"/>
</g>
<defs>
<clipPath id="clip0_184_443">
<rect width="65" height="67" fill="white" transform="matrix(0 -1 1 0 0 65)"/>
</clipPath>
</defs>
</svg>
