<svg width="currentWidth" height="currentHeight" viewBox="0 0 50 50" fill="none" xmlns="http://www.w3.org/2000/svg">
<path d="M45.5563 46.814L44.4485 47.9218C43.2219 49.1468 41.2375 49.1468 40.0141 47.9218L31.1454 39.0562C30.1204 38.0281 30.0063 36.4874 30.7063 35.2874L25.8563 30.4406C23.2485 32.375 20.0313 33.5328 16.536 33.5328C7.87974 33.5328 0.862549 26.5156 0.862549 17.8593C0.862549 9.20308 7.87974 2.18433 16.536 2.18433C25.1938 2.18433 32.2094 9.20151 32.2094 17.8593C32.2094 21.889 30.6782 25.5515 28.1782 28.3281L32.9204 33.0703C34.1204 32.3718 35.661 32.4843 36.686 33.5124L45.5547 42.3781C46.7797 43.6046 46.7797 45.5906 45.5563 46.814ZM28.2625 17.7953C28.2625 11.3031 22.9985 6.04058 16.5063 6.04058C10.0141 6.04058 4.75005 11.3015 4.75005 17.7953C4.75005 24.289 10.0125 29.55 16.5047 29.55C22.9969 29.55 28.2625 24.2875 28.2625 17.7953Z" fill="currentColor"/>
</svg>
