<svg width="currentWidth" height="currentHeight" viewBox="0 0 50 50" fill="none" xmlns="http://www.w3.org/2000/svg">
<g clip-path="url(#clip0_51_1574)">
<path fill-rule="evenodd" clip-rule="evenodd" d="M46.6667 36.667V13.3336H3.33333V36.667H46.6667ZM50 13.3336V36.667C50 38.5077 48.5077 40.0004 46.6667 40.0004H3.33333C1.49238 40.0004 0 38.5077 0 36.667V13.3336C0 11.4926 1.49238 10.0002 3.33333 10.0002H46.6667C48.5077 10.0002 50 11.4926 50 13.3336ZM6.66667 17.5C6.66667 17.0398 7.03977 16.6667 7.5 16.6667H19.1667C19.6269 16.6667 20 17.0398 20 17.5V32.5C20 32.9603 19.6269 33.3334 19.1667 33.3334H7.5C7.03977 33.3334 6.66667 32.9603 6.66667 32.5V17.5ZM25 23.3334C24.0795 23.3334 23.3333 24.0796 23.3333 25C23.3333 25.9205 24.0795 26.6667 25 26.6667H35C35.9203 26.6667 36.6667 25.9205 36.6667 25C36.6667 24.0796 35.9203 23.3334 35 23.3334H25ZM23.3333 31.6667C23.3333 30.7462 24.0795 30 25 30H41.6667C42.587 30 43.3333 30.7462 43.3333 31.6667C43.3333 32.5872 42.587 33.3334 41.6667 33.3334H25C24.0795 33.3334 23.3333 32.5872 23.3333 31.6667ZM25 16.6667C24.0795 16.6667 23.3333 17.4129 23.3333 18.3334C23.3333 19.2538 24.0795 20 25 20H38.3333C39.2537 20 40 19.2538 40 18.3334C40 17.4129 39.2537 16.6667 38.3333 16.6667H25Z" fill="currentColor"/>
</g>
<defs>
<clipPath id="clip0_51_1574">
<rect width="50" height="50" fill="transparent"/>
</clipPath>
</defs>
</svg>
