<svg width="currentWidth" height="currentHeight" viewBox="0 0 50 50" fill="none" xmlns="http://www.w3.org/2000/svg">
<path d="M8.33325 15.0005V35.0005C8.33325 37.334 8.33325 38.5002 8.7874 39.3915C9.18686 40.1755 9.82381 40.8136 10.6078 41.213C11.4983 41.6667 12.6645 41.6667 14.9935 41.6667H35.0064C37.3353 41.6667 38.4999 41.6667 39.3903 41.213C40.1743 40.8136 40.8135 40.1755 41.2128 39.3915C41.6666 38.5011 41.6666 37.3365 41.6666 35.0075V14.9936C41.6666 12.6646 41.6666 11.4984 41.2128 10.608C40.8135 9.82394 40.1743 9.18698 39.3903 8.78752C38.4991 8.33337 37.3339 8.33337 35.0003 8.33337H15.0003C12.6668 8.33337 11.4991 8.33337 10.6078 8.78752C9.82381 9.18698 9.18686 9.82394 8.7874 10.608C8.33325 11.4992 8.33325 12.6669 8.33325 15.0005Z" stroke="currentColor" stroke-width="6" stroke-linecap="round" stroke-linejoin="round"/>
</svg>
