<svg width="currentWidth" height="currentHeight" viewBox="0 0 50 50" fill="none" xmlns="http://www.w3.org/2000/svg">
<path d="M25.0001 17.7083C25.2743 17.7067 25.5461 17.7592 25.7999 17.8629C26.0537 17.9666 26.2846 18.1194 26.4793 18.3124L34.8126 26.6458C35.0068 26.84 35.1609 27.0706 35.2661 27.3244C35.3712 27.5782 35.4253 27.8502 35.4253 28.1249C35.4253 28.3996 35.3712 28.6717 35.2661 28.9255C35.1609 29.1793 35.0068 29.4099 34.8126 29.6041C34.6184 29.7984 34.3878 29.9524 34.134 30.0576C33.8802 30.1627 33.6081 30.2168 33.3334 30.2168C33.0587 30.2168 32.7867 30.1627 32.5329 30.0576C32.2791 29.9524 32.0485 29.7984 31.8543 29.6041L25.0001 22.7083L18.1251 29.3333C17.9335 29.5464 17.6999 29.7176 17.439 29.8364C17.1782 29.9551 16.8956 30.0187 16.6091 30.0232C16.3225 30.0278 16.0381 29.9732 15.7736 29.8628C15.5091 29.7524 15.2702 29.5886 15.0719 29.3816C14.8736 29.1747 14.7201 28.9291 14.6211 28.6602C14.522 28.3912 14.4795 28.1047 14.4963 27.8186C14.513 27.5325 14.5886 27.2529 14.7183 26.9973C14.848 26.7417 15.029 26.5157 15.2501 26.3333L23.5834 18.2916C23.9644 17.9243 24.4709 17.7157 25.0001 17.7083Z" fill="currentColor"/>
</svg>
