<svg width="currentWidth" height="currentHeight" viewBox="0 0 50 50" fill="none" xmlns="http://www.w3.org/2000/svg">
<path d="M11.511 24.1672C9.67822 24.1672 8.17822 25.6672 8.17822 27.5C8.17822 29.3329 9.67822 30.8329 11.511 30.8329C13.3438 30.8329 14.8438 29.3329 14.8438 27.5C14.8438 25.6672 13.3438 24.1672 11.511 24.1672ZM11.511 29.1672C10.5938 29.1672 9.84385 28.4172 9.84385 27.5C9.84385 26.5829 10.5938 25.8329 11.511 25.8329C12.4282 25.8329 13.1782 26.5829 13.1782 27.5C13.1782 28.4172 12.4282 29.1672 11.511 29.1672Z" fill="currentColor"/>
<path d="M38.1766 24.1672C36.3438 24.1672 34.8438 25.6672 34.8438 27.5C34.8438 29.3329 36.3438 30.8329 38.1766 30.8329C40.0094 30.8329 41.5094 29.3329 41.5094 27.5C41.5094 25.6672 40.0094 24.1672 38.1766 24.1672ZM38.1766 29.1672C37.2594 29.1672 36.5094 28.4172 36.5094 27.5C36.5094 26.5829 37.2594 25.8329 38.1766 25.8329C39.0938 25.8329 39.8438 26.5829 39.8438 27.5C39.8438 28.4172 39.0938 29.1672 38.1766 29.1672Z" fill="currentColor"/>
<path d="M41.5938 17.5L40.1766 10.8328C39.5938 8.66562 37.9266 7.5 35.6766 7.5H14.0094C11.6766 7.5 10.3422 8.66719 9.67656 10.8328L8.17656 17.5H2.34375V19.1672H7.76094V19.25C5.17812 19.4172 3.17812 21.5828 3.17812 24.25V35.8328H5.67813V38.3328C5.67813 40.6656 7.51094 42.5 9.84531 42.5C12.1797 42.5 14.0125 40.6672 14.0125 38.3328V35.8328H35.6797V38.3328C35.6797 40.6656 37.5125 42.5 39.8469 42.5C42.1813 42.5 44.0141 40.6672 44.0141 38.3328V35.8328H46.5141V24.25C46.5141 21.6672 44.5141 19.5 42.0141 19.25V19.1672H47.3469V17.5H41.5969H41.5938ZM11.2609 11.3328C11.7609 9.83281 12.5109 9.16563 14.0109 9.16563H35.6781C37.2609 9.16563 38.1781 9.83281 38.5953 11.2484L40.2625 19.2484H9.42969L11.2625 11.3312L11.2609 11.3328ZM12.3438 38.3328C12.3438 39.75 11.2609 40.8328 9.84375 40.8328C8.42656 40.8328 7.34375 39.75 7.34375 38.3328V35.8328H12.3438V38.3328ZM42.3438 38.3328C42.3438 39.75 41.2609 40.8328 39.8438 40.8328C38.4266 40.8328 37.3438 39.75 37.3438 38.3328V35.8328H42.3438V38.3328ZM44.8438 24.25V34.1672H4.84375V24.25C4.84375 22.4172 6.34375 20.9172 8.17656 20.9172H41.5094C43.3422 20.9172 44.8422 22.4172 44.8422 24.25H44.8438Z" fill="currentColor"/>
</svg>
