<svg width="currentWidth" height="currentHeight" viewBox="0 0 50 50" fill="none" xmlns="http://www.w3.org/2000/svg">
<path fill-rule="evenodd" clip-rule="evenodd" d="M45.8334 25.0001C45.8334 36.5059 36.5059 45.8334 25.0001 45.8334C13.4941 45.8334 4.16675 36.5059 4.16675 25.0001C4.16675 13.4941 13.4941 4.16675 25.0001 4.16675C36.5059 4.16675 45.8334 13.4941 45.8334 25.0001ZM33.3965 18.6869C34.0067 19.2971 34.0067 20.2864 33.3965 20.8965L22.9799 31.3132C22.3697 31.9234 21.3805 31.9234 20.7702 31.3132L16.6036 27.1465C15.9934 26.5363 15.9934 25.5472 16.6036 24.937C17.2137 24.3267 18.2031 24.3267 18.8133 24.937L21.8751 27.9986L26.5309 23.3428L31.187 18.6869C31.7972 18.0767 32.7863 18.0767 33.3965 18.6869Z" fill="currentColor"/>
</svg>
