<svg width="currentWidth" height="currentHeight" viewBox="0 0 50 50" fill="none" xmlns="http://www.w3.org/2000/svg">
<path d="M4.16675 8.33333C4.16675 7.7808 4.38624 7.25089 4.77694 6.86019C5.16764 6.46949 5.69755 6.25 6.25008 6.25H43.7501C44.3026 6.25 44.8325 6.46949 45.2232 6.86019C45.6139 7.25089 45.8334 7.7808 45.8334 8.33333C45.8334 8.88587 45.6139 9.41577 45.2232 9.80647C44.8325 10.1972 44.3026 10.4167 43.7501 10.4167H6.25008C5.69755 10.4167 5.16764 10.1972 4.77694 9.80647C4.38624 9.41577 4.16675 8.88587 4.16675 8.33333ZM6.25008 27.0833H43.7501C44.3026 27.0833 44.8325 26.8638 45.2232 26.4731C45.6139 26.0824 45.8334 25.5525 45.8334 25C45.8334 24.4475 45.6139 23.9176 45.2232 23.5269C44.8325 23.1362 44.3026 22.9167 43.7501 22.9167H6.25008C5.69755 22.9167 5.16764 23.1362 4.77694 23.5269C4.38624 23.9176 4.16675 24.4475 4.16675 25C4.16675 25.5525 4.38624 26.0824 4.77694 26.4731C5.16764 26.8638 5.69755 27.0833 6.25008 27.0833ZM6.25008 43.75H25.0001C25.5526 43.75 26.0825 43.5305 26.4732 43.1398C26.8639 42.7491 27.0834 42.2192 27.0834 41.6667C27.0834 41.1141 26.8639 40.5842 26.4732 40.1935C26.0825 39.8028 25.5526 39.5833 25.0001 39.5833H6.25008C5.69755 39.5833 5.16764 39.8028 4.77694 40.1935C4.38624 40.5842 4.16675 41.1141 4.16675 41.6667C4.16675 42.2192 4.38624 42.7491 4.77694 43.1398C5.16764 43.5305 5.69755 43.75 6.25008 43.75Z" fill="currentColor"/>
</svg>
